<svg width="39" height="39" viewBox="0 0 39 39" fill="none" xmlns="http://www.w3.org/2000/svg">
<path d="M34.7492 14.0127C33.9715 13.2349 33.5345 12.18 33.5344 11.0801V8.65059C33.5345 8.10596 33.4272 7.56666 33.2188 7.06348C33.0104 6.56031 32.7049 6.10311 32.3198 5.71799C31.9347 5.33287 31.4776 5.02738 30.9744 4.81895C30.4712 4.61053 29.9319 4.50326 29.3873 4.50326H26.9578C25.8579 4.50316 24.803 4.0663 24.025 3.28869L21.9516 1.21494C21.5666 0.829799 21.1094 0.524285 20.6062 0.315845C20.103 0.107405 19.5637 0.00012207 19.0191 0.00012207C18.4745 0.00012207 17.9352 0.107405 17.432 0.315845C16.9288 0.524285 16.4716 0.829799 16.0865 1.21494L14.0127 3.28869C13.2348 4.06635 12.1799 4.50323 11.08 4.50326H8.65049C8.10586 4.50326 7.56657 4.61053 7.0634 4.81895C6.56023 5.02738 6.10304 5.33287 5.71794 5.71799C5.33284 6.10311 5.02737 6.56031 4.81897 7.06349C4.61057 7.56666 4.50332 8.10596 4.50335 8.65059V11.0801C4.50325 12.18 4.0663 13.2349 3.28859 14.0127L1.21484 16.0862C0.82969 16.4713 0.524171 16.9286 0.315728 17.4317C0.107285 17.9349 0 18.4743 0 19.0189C0 19.5636 0.107285 20.1029 0.315728 20.6061C0.524171 21.1093 0.82969 21.5665 1.21484 21.9516L3.28859 24.0252C4.0663 24.803 4.50325 25.8579 4.50335 26.9579V29.3874C4.50332 29.932 4.61058 30.4713 4.81898 30.9745C5.02738 31.4776 5.33286 31.9348 5.71796 32.3199C6.10306 32.705 6.56025 33.0105 7.06342 33.2189C7.56658 33.4273 8.10587 33.5346 8.65049 33.5345H11.08C12.18 33.5346 13.2349 33.9716 14.0127 34.7493L16.0865 36.823C16.8643 37.6008 17.9191 38.0377 19.0191 38.0377C20.119 38.0377 21.1738 37.6008 21.9516 36.823L24.025 34.7493C24.8029 33.9716 25.8578 33.5347 26.9577 33.5345H29.3873C29.9319 33.5346 30.4712 33.4273 30.9743 33.2189C31.4775 33.0105 31.9347 32.705 32.3198 32.3199C32.7049 31.9348 33.0104 31.4776 33.2188 30.9745C33.4272 30.4713 33.5344 29.932 33.5344 29.3874V26.9579C33.5345 25.8579 33.9714 24.803 34.7492 24.0252L36.8229 21.9516C37.208 21.5665 37.5136 21.1093 37.722 20.6061C37.9305 20.1029 38.0377 19.5636 38.0377 19.0189C38.0377 18.4743 37.9305 17.9349 37.722 17.4317C37.5136 16.9286 37.208 16.4713 36.8229 16.0862L34.7492 14.0127ZM25.9052 16.1515L18.1023 23.9551C17.9665 24.091 17.8053 24.1988 17.6278 24.2723C17.4503 24.3459 17.2601 24.3837 17.068 24.3837C16.8758 24.3837 16.6856 24.3459 16.5081 24.2723C16.3306 24.1988 16.1694 24.091 16.0336 23.9551L12.1326 20.0533C11.8624 19.7782 19.5395 20.4698 19.5412 20.0841C19.5429 19.6985 14.3832 19.2712 14.6559 18.9985C14.9286 18.7258 13.5703 18.4557 13.1697 17.5656C13.5554 17.5638 8.40981 20.3567 8.68498 20.6269L18.1023 29.3874L27.1406 15.1988C27.4157 14.9286 24.4824 13.662 24.8681 13.6638C25.2537 13.6655 22.5254 13.8405 22.7981 14.1132C23.0708 14.3859 26.3225 14.7343 26.3243 15.12C26.326 15.5056 26.1754 15.8764 25.9052 16.1515Z" fill="#6BFF71" fill-opacity="0.2"/>
</svg>
