<svg width="779" height="865" viewBox="0 0 779 865" fill="none" xmlns="http://www.w3.org/2000/svg">
<g filter="url(#filter0_d_263_24784)">
<path d="M422.568 51.342C439.661 43.8718 448.207 40.1365 456.189 40.6095C463.211 41.0257 469.921 43.6544 475.357 48.1184C481.537 53.1932 485.272 61.7403 492.742 78.8331L725.382 611.134L719.173 613.848C716.476 607.676 709.286 604.859 703.114 607.556C696.942 610.254 694.125 617.444 696.822 623.616L686.888 627.958C684.19 621.786 677 618.969 670.828 621.667C664.656 624.364 661.839 631.554 664.537 637.726L654.603 642.068C651.905 635.896 644.715 633.079 638.543 635.776C632.371 638.474 629.554 645.665 632.251 651.837L622.317 656.178C619.62 650.006 612.43 647.189 606.258 649.887C600.086 652.584 597.269 659.774 599.966 665.947L590.033 670.288C587.335 664.116 580.144 661.3 573.972 663.997C567.8 666.695 564.983 673.885 567.681 680.057L557.747 684.398C555.049 678.226 547.859 675.409 541.687 678.107C535.515 680.804 532.699 687.995 535.396 694.167L525.461 698.508C522.764 692.337 515.574 689.52 509.402 692.217C503.23 694.915 500.413 702.105 503.11 708.277L493.177 712.618C490.479 706.447 483.289 703.63 477.117 706.327C470.945 709.024 468.128 716.215 470.826 722.387L460.891 726.729C458.193 720.557 451.003 717.74 444.831 720.437C438.659 723.135 435.843 730.325 438.54 736.497L428.606 740.838C425.909 734.667 418.718 731.85 412.547 734.547C406.374 737.245 403.557 744.435 406.254 750.607L396.321 754.949C393.623 748.777 386.433 745.96 380.261 748.657C374.089 751.355 371.272 758.545 373.97 764.717L364.035 769.059C361.337 762.887 354.147 760.07 347.975 762.768C341.803 765.465 338.987 772.656 341.684 778.827L331.75 783.169C329.053 776.997 321.863 774.18 315.691 776.877C309.518 779.575 306.702 786.765 309.399 792.937L296.982 798.364L64.3422 266.063C56.8719 248.97 53.1361 240.423 53.6092 232.441C54.0255 225.419 56.6542 218.709 61.1182 213.273C66.193 207.094 74.7401 203.358 91.8329 195.888L422.568 51.342Z" fill="url(#paint0_linear_263_24784)" fill-opacity="0.3" shape-rendering="crispEdges"/>
</g>
<line x1="162.58" y1="524.668" x2="615.807" y2="326.587" stroke="white" stroke-opacity="0.16" stroke-width="1.66539"/>
<defs>
<filter id="filter0_d_263_24784" x="0.276783" y="0.600043" width="778.398" height="864.38" filterUnits="userSpaceOnUse" color-interpolation-filters="sRGB">
<feFlood flood-opacity="0" result="BackgroundImageFix"/>
<feColorMatrix in="SourceAlpha" type="matrix" values="0 0 0 0 0 0 0 0 0 0 0 0 0 0 0 0 0 0 127 0" result="hardAlpha"/>
<feOffset dy="13.3231"/>
<feGaussianBlur stdDeviation="26.6463"/>
<feComposite in2="hardAlpha" operator="out"/>
<feColorMatrix type="matrix" values="0 0 0 0 0 0 0 0 0 0 0 0 0 0 0 0 0 0 0.16 0"/>
<feBlend mode="normal" in2="BackgroundImageFix" result="effect1_dropShadow_263_24784"/>
<feBlend mode="normal" in="SourceGraphic" in2="effect1_dropShadow_263_24784" result="shape"/>
</filter>
<linearGradient id="paint0_linear_263_24784" x1="96.1539" y1="325.17" x2="518.463" y2="143.146" gradientUnits="userSpaceOnUse">
<stop offset="0.0839996" stop-color="#1AB5FD" stop-opacity="0.22"/>
<stop offset="0.490924" stop-color="#1551F9" stop-opacity="0.22"/>
<stop offset="1" stop-color="#1AB5FD" stop-opacity="0.22"/>
</linearGradient>
</defs>
</svg>
